<?xml version="1.0" encoding="utf-8"?>
<!-- Generator: Adobe Illustrator 16.0.0, SVG Export Plug-In . SVG Version: 6.00 Build 0)  -->
<!DOCTYPE svg PUBLIC "-//W3C//DTD SVG 1.1//EN" "http://www.w3.org/Graphics/SVG/1.1/DTD/svg11.dtd">
<svg version="1.1" id="Layer_1" xmlns="http://www.w3.org/2000/svg" xmlns:xlink="http://www.w3.org/1999/xlink" x="0px" y="0px"
	 width="16px" height="28px" viewBox="0 0 16 28" enable-background="new 0 0 16 28" xml:space="preserve">
<g>
	<path d="M14.766,13.425c-0.143,0-0.289,0.054-0.398,0.164L0.536,26.957c-0.229,0.218-0.233,0.583-0.016,0.81
		c0.218,0.229,0.581,0.234,0.811,0.018l13.831-13.369c0.228-0.217,0.233-0.582,0.016-0.811
		C15.064,13.479,14.916,13.425,14.766,13.425z"/>
	<path d="M0.933,0.057c-0.152,0-0.3,0.06-0.414,0.174C0.301,0.459,0.306,0.824,0.535,1.042l13.83,13.368
		c0.23,0.218,0.595,0.212,0.812-0.017s0.212-0.593-0.018-0.811L1.329,0.214C1.221,0.11,1.074,0.057,0.933,0.057z"/>
</g>
</svg>
