<?xml version="1.0" encoding="utf-8"?>
<!-- Generator: Adobe Illustrator 16.0.0, SVG Export Plug-In . SVG Version: 6.00 Build 0)  -->
<!DOCTYPE svg PUBLIC "-//W3C//DTD SVG 1.1//EN" "http://www.w3.org/Graphics/SVG/1.1/DTD/svg11.dtd">
<svg version="1.1" id="Layer_1" xmlns="http://www.w3.org/2000/svg" xmlns:xlink="http://www.w3.org/1999/xlink" x="0px" y="0px"
	 width="16px" height="28px" viewBox="0 0 16 28" enable-background="new 0 0 16 28" xml:space="preserve">
<g>
	<path d="M0.519,13.604c-0.218,0.229-0.212,0.594,0.016,0.811l13.831,13.369c0.229,0.217,0.593,0.212,0.811-0.018
		c0.218-0.227,0.213-0.592-0.016-0.81L1.329,13.589c-0.108-0.109-0.255-0.164-0.397-0.164C0.78,13.425,0.632,13.479,0.519,13.604z"
		/>
	<path d="M14.367,0.214L0.536,13.583c-0.229,0.218-0.235,0.583-0.017,0.811c0.217,0.229,0.582,0.234,0.812,0.017L15.161,1.042
		c0.229-0.218,0.234-0.583,0.017-0.812c-0.114-0.114-0.262-0.174-0.414-0.174C14.622,0.057,14.476,0.11,14.367,0.214z"/>
</g>
</svg>
